<svg xmlns="http://www.w3.org/2000/svg" viewBox="0 0 382.67 93"><defs><style>.cls-1{fill:#d3ccb8;}</style></defs><g id="Capa_2" data-name="Capa 2"><g id="Capa_1-2" data-name="Capa 1"><path class="cls-1" d="M45.4,47.18a.73.73,0,0,1,.5-.19c1.6,0,3-2.38,3.93-6.87C48,31.55,44.05,27.39,37.7,27.39H31.25c-.09,0-2.18.22-2.18,19.76v4c4.06.47,6.75,1,8.19,1.67C38.09,52.74,40.2,51.81,45.4,47.18Z"/><path class="cls-1" d="M45.68,57.88A26.38,26.38,0,0,0,41.44,59a.59.59,0,0,1-.23,0c-.49,0-1.36-.29-4.33-2.35h-.31c-7.93,1.08-9.11,2.84-9.11,3.8V61l.5,1a.74.74,0,0,1,.08.41l-.56,5a7.4,7.4,0,0,1,1.15,3.68v4.11a.76.76,0,0,1-.08.33,8.9,8.9,0,0,1-1.45,2.29l.28.56a.76.76,0,0,1,.08.33,9.39,9.39,0,0,1-2.16,5.28l.56.74c1.63-.94,4.74-2,9.45-3.22a.75.75,0,0,1,.94.72s.08.46,1.64,1.48a15.79,15.79,0,0,1,7-1.64.75.75,0,0,1,.75.75s0,.39,1.17,1c1.41-.13,4.13-1.86,9.19-9a5.5,5.5,0,0,0,.45-2.5C56.44,67.89,52.82,63,45.68,57.88Z"/><path class="cls-1" d="M102.22,35.76c-1.22,1.54-2.62,4.56-4.19,9a.76.76,0,0,1-.71.5c-.69,0-3.09,1.25-5,17.1a1.27,1.27,0,0,1,.39.55,76.19,76.19,0,0,0,16.88-3.13.7.7,0,0,1,.63.07l1.5.91v-.17C106.34,41.05,103.46,36.64,102.22,35.76Z"/><path class="cls-1" d="M382,83c-1.08-2.66-3.36-4-6.06-4.76l.24-.07h-.44c-5-1.27-11.35-.28-14.59-.3s-6.47,0-9.7,0c-.81-3.85.34-11.18.92-14.23s1.35-5.3,2.54-6.79c6.27.4,13.55.46,18.07-1.19h1.21l-1-.08c2.15-.83,3.66-2,4-3.86,1.7-9-13.76-8.76-22.82-8.15-1.32-4-.76-10.36-.63-13.52.16-3.7.43-6.31,1.38-8.17,6.23.32,13.4,1.29,19.08-.43,7.5-2.27,5.16-10.14-1.28-12C368.33,8,363,8,357.59,8.22l-4.34-5.64a10.18,10.18,0,0,0-1.53-1.7A5.26,5.26,0,0,0,347.93,0l-6.7.26c1,.48,1.84,1.11,1.84,1.75,0,1.92-1.18,3.68-2.23,5.23-.32.48-.63.94-.9,1.39l-4.08,7a.84.84,0,0,1-.6.37l-.13,0h-3.6c-.43,0-4.16-1.27-4.16-2.59a15.18,15.18,0,0,1,1.12-4.94c.17-.49.34-1,.49-1.46l.7-2.25c-1.67,1.05-3.23,2.74-4.95,3.52-.16.07-.32.1-.48.16a76,76,0,0,0-12.07.91l-1.67.31c-6.65-.59-13.74-.94-18.42,1.13a8.69,8.69,0,0,0-1.49.84,12.06,12.06,0,0,0-1.93.63,4.13,4.13,0,0,0-1.07.74c-4,0-7.94,0-11.91.05-1.94,0-7.4-1-8.89.25a6.72,6.72,0,0,0-.53.54c-4.12,0-8.24-.06-12.36-.06-4.12-1.19-8.69-1.17-12.75-1.35-11.45-.53-22.95-.3-34.41-.3-5.88,0-13.44-1.25-20.39-1.19a6.23,6.23,0,0,0-2.4-3.4c-6.85-3.81-22.78-.35-30.36-.35-7.21,0-14.41,0-21.61.11-2.59,0-7.71-.94-10.27.78a8.53,8.53,0,0,0-3,4.5c-3.87.24-7.67.54-11.12.54-7.16,0-14.31,0-21.47.1-1.34,0-3.69-.34-5.74-.35-.16,0-.31-.1-.46-.15.18,0,.37,0,.55-.08h-.8c-.09,0-.18-.07-.28-.09-11-2.67-24.16-.54-35.57-.29L33,12.31c-6.87,0-22.14-3.67-28.49.88-7.91,5.66-2.26,30-2.95,38.94C1.18,57,.63,61.4.55,67.26c-.08,5.57-2,17,1.71,21.06.69.76,2.24,1.21,4.27,1.46,3.87,1.7,8.9,2,13.77,1.93,9.39,2.72,22,.25,30.53.25,8.09,0,20.34,2.55,29.05-.35h1.31c-.28,0-.57-.08-.85-.12.38-.14.71-.35,1.08-.51,1.16-.13,2.3-.32,3.42-.55.17,0,.33-.11.5-.15h1l-.11,0c7.18.44,26.94,1.89,28-.47.07-.16.16-.31.23-.46.32,0,.69,0,1,0q13.3.06,26.6,0c3.83,1.64,13.56.89,20.94.21,6.24.23,12.49.31,18.69.12a95.35,95.35,0,0,0,9.94.55c-2,2.13,14.63.63,22.7-.37,4.15,0,8.29,0,12.44,0a38.93,38.93,0,0,0,9.23,0c1.6,0,3.2,0,4.8,0a91.66,91.66,0,0,0,14.58-.91q6,0,11.93,0a2.82,2.82,0,0,1-.31.21h1.41c3.77,1.46,9.21.28,13.62.31,6.42,0,12.83,0,19.25,0a75,75,0,0,0,9.85.53,68.78,68.78,0,0,0,10,1.23c11.08.5,22.23.27,33.31.25,3.72,0,23.07,3,26.33-.34C382.8,88.83,383.2,85.93,382,83ZM56,86.32a.78.78,0,0,1-.58.27c-.82,0-2.42.48-5.41,2.77a.75.75,0,0,1-.45.16H48.39A5.52,5.52,0,0,1,46.08,89L43.5,90.58a.73.73,0,0,1-.38.11,9,9,0,0,1-5.53-1.76h-.33c-.43.06-.43.22-.43.43a.74.74,0,0,1-.23.54.72.72,0,0,1-.57.2c-5.58-.38-9-1.18-10.53-2.5l-.27.11a.92.92,0,0,1-.28.05h-.59c-.9,0-1.7-.71-2.43-2.17a.78.78,0,0,1-.07-.45,47,47,0,0,0,.58-6.21,26.59,26.59,0,0,1-1.76-7.75.79.79,0,0,1,.11-.39,5.42,5.42,0,0,0,1.06-2.54c-.39-4-.58-6.32-.58-7a.57.57,0,0,1,0-.13c.29-1.61.78-3.63,1.91-4.4a65.66,65.66,0,0,1-.9-8.91.62.62,0,0,1,0-.13c.36-3.2.56-5.29.58-6.22a.78.78,0,0,1-.59-.73,4.68,4.68,0,0,1,.58-1.9c-.38-5.65-.58-9.54-.58-11.58.64-5.58,2.87-8.37,6.61-8.37H29a46.12,46.12,0,0,0,6.34.58h1.76a30.26,30.26,0,0,0,5.14-.58.81.81,0,0,1,.41,0c10.4,4,15.69,10.34,15.72,18.82L59,41.77a.88.88,0,0,1,0,.28A45.63,45.63,0,0,1,55,52.35c5.45,7.17,8.21,13.31,8.21,18.25C63.21,75.25,60.79,80.54,56,86.32ZM127.09,85c0,1-.85,2-2.67,3.25a.76.76,0,0,1-.43.14h-2.34c-.85,0-2.13,0-7.69-15-2.34-2.44-3.19-2.82-3.4-2.87a20.38,20.38,0,0,1-3.57.72l-.23,0-8-2.58L91.91,70a.75.75,0,0,1-.53-.08,4.71,4.71,0,0,0-2.1-.48C84.07,79.86,82.81,81.66,82.15,82A17.23,17.23,0,0,0,77.8,88.6a.75.75,0,0,1-.7.48H75.93a.67.67,0,0,1-.24,0c-1.51-.5-2.27-2-2.27-4.52a.8.8,0,0,1,.06-.3c.85-2,1.82-6,2.88-11.85a.76.76,0,0,1,.74-.62c.39,0,2.66-1.07,8.51-22.31a.73.73,0,0,1,.26-.39c1.12-.87,3.31-4.52,7.37-16.93a.75.75,0,0,1,.55-.5c.21-.13,1.35-1.32,4.74-10.23a.75.75,0,0,1,.33-.39l2.34-1.32a.82.82,0,0,1,.37-.1c4.13,0,7.23,5.12,9.48,15.63,1.15,1.28,3.66,6,11.31,28a1,1,0,0,1,0,.25c0,1.94,1.16,5.69,3.46,11.14a.8.8,0,0,1,0,.46l-.53,2.25a17.76,17.76,0,0,1,1.72,5.78Zm45.31-.56c0,1.38-1.62,2.46-5.24,3.48a.64.64,0,0,1-.2,0,1.32,1.32,0,0,1-1.09-.51l-2.32.35h-.13l-14.66-.44c-3.33-.1-5.52-1.34-6.52-3.68a.63.63,0,0,1-.06-.33L142.76,71a10.35,10.35,0,0,0-.95-4.34.7.7,0,0,1-.05-.51,37.25,37.25,0,0,0,1.44-6.74c0-.26-.14-3.79-.29-7.69a.7.7,0,0,1,.1-.4l.44-.77a103.12,103.12,0,0,1-1.86-14,5.55,5.55,0,0,1,.57-2.56,49.24,49.24,0,0,1-.28-5V27.07a.77.77,0,0,1,0-.15c1.78-8.6,4-12.61,6.89-12.61h.14c2.92.12,4.27,4.83,4.27,14.82,0,1.65,0,3.43-.15,5.46v3c0,2.82.1,5.31.29,7.4a.72.72,0,0,1-.11.47l-.58.93.54,3.24a.62.62,0,0,1,0,.27l-.71,3.43a4.57,4.57,0,0,0,.5,1.36.69.69,0,0,1,.08.42c-.59,5-.93,9-1,12.1l-.3,4.71v.25c0,3.69,1.57,5.5,4.94,5.69l2.85-.42h.16c10.68.65,12.86,1.82,12.86,3.39Zm65-51.17c0,.87-.65,1.7-2,2.54a.82.82,0,0,1-.41.12c-2,0-6.35-1.8-13.32-5.48l-6.7-2c-10.43.39-16.32,3.2-17.49,8.35a.76.76,0,0,1-.71.58c-1.24,0-4.24,2.66-5.28,26.14,3.39,13.65,5.67,14.71,6.28,14.71a.74.74,0,0,1,.36.09c3.61,2,5.23,2.4,5.94,2.4h.15l5.25-.14c5.32-.19,11.26-2.64,17.65-7.3.38-1.32,2.54-1.55,3.4-1.64l1.77-.15a.73.73,0,0,1,.48.13,8,8,0,0,1,4,6.45v.18c0,4.34-5.22,7.7-16,10.25l-.12,0-4.11.29h-1.08a14.47,14.47,0,0,1-7.16-1.64,2,2,0,0,1-1.54.9h-2.58c-.93,0-3.14-.81-12.11-7.14-7.23-3.65-11.2-12.92-11.79-27.57l-.3-8.68c0-6.16,4.53-13.11,13.46-20.65a.81.81,0,0,1,.39-.17c.3,0,1.59-.53,7.15-4.27a.8.8,0,0,1,.32-.13,4.9,4.9,0,0,0,1.92-.64.82.82,0,0,1,.37-.1h3.67c11.86,0,19,1.78,21.92,5.44,2,.17,4.58,2.56,8,7.49a.76.76,0,0,1,.14.43ZM302.2,49.5a1.46,1.46,0,0,1-.17.71.77.77,0,0,1,.16.6c-.52,2.7-.58,3.26-.58,3.38v2.34c0,28-2.38,31.82-4.7,31.82a.87.87,0,0,1-.28,0c-2-.8-3.12-1.66-3.38-2.72a.55.55,0,0,1,0-.18V84.23a28.76,28.76,0,0,1,.55-5.17l-.47-1a.65.65,0,0,1-.07-.45l.57-3.46V71.56l-1-1.57a.7.7,0,0,1-.13-.42V64.3a29.25,29.25,0,0,1,.57-5.27c-.44-2.07-1.21-2.18-1.53-2.19l-4.05.58a.72.72,0,0,1-.29,0,32.66,32.66,0,0,0-8-1.15H264.67a31.67,31.67,0,0,1-5.49-.58c-4.39,0-4.9,2.17-4.9,3.79v.15a79.43,79.43,0,0,0-.59,10,3,3,0,0,0,.49,1.39.7.7,0,0,1,.09.47c-2.11,15.21-3.55,16.48-4.84,16.48-1.66,0-3.25-2.09-3.67-17.1a2,2,0,0,1-.6-1.68c0-1.95.15-9.26.44-21.7,0-.93-.2-3.87-.58-8.72a.29.29,0,0,1,0-.13c.58-5.75.93-7.53,1.14-8.2l-.55-3.33a.49.49,0,0,1,0-.12,15.19,15.19,0,0,1,1.83-6.19.74.74,0,0,1,.64-.42l2.93-.15c.67,0,1.4.34,4.18,4.43a.75.75,0,0,1,.12.49l-.58,7V34.4c0,11.56,1.82,12.15,2.18,12.15a50.61,50.61,0,0,1,9.45.58c8.56-.39,14.8-1,18.54-1.74a.81.81,0,0,1,.31,0,43.8,43.8,0,0,0,6.93,1.14,1.94,1.94,0,0,1,.9-1l-.53-6.4V25a5.6,5.6,0,0,1,4-5.53.58.58,0,0,1,.26,0c3.61,0,5.44,3.8,5.44,11.3Zm52.15,35.9a.55.55,0,0,1,0,.18l-.13.52c-.13,2.26-1,3.61-2.47,4a.57.57,0,0,1-.18,0h0l-7.62-.44h-.12l-9.63-2.16-3.33,1a.74.74,0,0,1-.33,0,38.35,38.35,0,0,1-9.26-2.25,4.45,4.45,0,0,1-1.76.5.74.74,0,0,1-.48-.17c-2.65-2.22-3.93-8-3.93-17.57,0-2.38.1-5,.29-7.82a.65.65,0,0,1,.08-.28,4.67,4.67,0,0,0,.5-1.36l-1-4.6a.78.78,0,0,1,0-.16c0-.56.15-1.65,1.47-4.7v-5c0-4.81.09-8.87.29-12.06l.44-9.81c.11-2.43,1.73-4.42,4.82-5.92a.73.73,0,0,1,.36-.07l5.86.29h.7a115.26,115.26,0,0,0,14.54-1.6h.17c4.41.33,6.86,3.27,7.28,8.75a.75.75,0,0,1-.25.63c-2.22,1.9-4.1,2.82-5.77,2.82h-.14l-.15,0c-7-1.37-9.08-2.24-9.94-2.79a18.66,18.66,0,0,0-2.08-.12c-4.59,0-7,1-7.16,3a.81.81,0,0,1-.1.31,6.41,6.41,0,0,0-.64,2.62c-.09,2.78-.14,5.29-.14,7.42,0,9.88,1.44,10.09,1.5,10.09h.68A99.6,99.6,0,0,0,341.17,47h.16c4.78.21,7.31,2.75,7.31,7.34v1.32a.7.7,0,0,1-.09.35c-.92,1.73-2.13,2.6-3.59,2.6h-.15a42.58,42.58,0,0,1-11.11-1.76h-.9c-6.32,0-9.48,2.45-9.66,7.48-.1,1.48-.53,6.27-1.28,14.26a2.87,2.87,0,0,0,.71.34l1.13-.51a.77.77,0,0,1,.72.06c3.11,2.08,4.6,2.52,5.3,2.52l1.14.13a152.58,152.58,0,0,0,15.79-3.91.66.66,0,0,1,.46,0c4.81,1.67,7.24,4.37,7.24,8Z"/></g></g></svg>